<?xml version="1.0" standalone="no"?>
<!DOCTYPE svg PUBLIC "-//W3C//DTD SVG 20010904//EN"
 "http://www.w3.org/TR/2001/REC-SVG-20010904/DTD/svg10.dtd">
<svg version="1.0" xmlns="http://www.w3.org/2000/svg"
 width="1254.000000pt" height="1254.000000pt" viewBox="0 0 1254.000000 1254.000000"
 preserveAspectRatio="xMidYMid meet">

<g transform="translate(0.000000,1254.000000) scale(0.100000,-0.100000)"
fill="#000000" stroke="none">
<path d="M0 6270 l0 -6270 6270 0 6270 0 0 6270 0 6270 -6270 0 -6270 0 0
-6270z m6263 4383 c-13 -2 -33 -2 -45 0 -13 2 -3 4 22 4 25 0 35 -2 23 -4z
m-215 -20 c-10 -2 -26 -2 -35 0 -10 3 -2 5 17 5 19 0 27 -2 18 -5z m-95 -10
c-7 -2 -21 -2 -30 0 -10 3 -4 5 12 5 17 0 24 -2 18 -5z m-70 -10 c-7 -2 -19
-2 -25 0 -7 3 -2 5 12 5 14 0 19 -2 13 -5z m-65 -10 c-10 -2 -26 -2 -35 0 -10
3 -2 5 17 5 19 0 27 -2 18 -5z m-65 -10 c-7 -2 -19 -2 -25 0 -7 3 -2 5 12 5
14 0 19 -2 13 -5z m-60 -10 c-7 -2 -19 -2 -25 0 -7 3 -2 5 12 5 14 0 19 -2 13
-5z m-56 -9 c-3 -3 -12 -4 -19 -1 -8 3 -5 6 6 6 11 1 17 -2 13 -5z m-50 -10
c-3 -3 -12 -4 -19 -1 -8 3 -5 6 6 6 11 1 17 -2 13 -5z m-44 -11 c-7 -2 -19 -2
-25 0 -7 3 -2 5 12 5 14 0 19 -2 13 -5z m-46 -9 c-3 -3 -12 -4 -19 -1 -8 3 -5
6 6 6 11 1 17 -2 13 -5z m-52 -14 c-11 -5 -29 -8 -40 -8 -16 0 -15 2 5 8 34
11 60 11 35 0z m-68 -16 c-3 -3 -12 -4 -19 -1 -8 3 -5 6 6 6 11 1 17 -2 13 -5z
m-40 -10 c-3 -3 -12 -4 -19 -1 -8 3 -5 6 6 6 11 1 17 -2 13 -5z m-70 -20 c-3
-3 -12 -4 -19 -1 -8 3 -5 6 6 6 11 1 17 -2 13 -5z m-127 -39 c-19 -7 -42 -13
-50 -13 -8 0 1 6 20 13 19 7 42 13 50 13 8 0 -1 -6 -20 -13z m-135 -45 c-3 -5
-12 -10 -19 -10 -7 0 -41 -11 -75 -26 -35 -14 -65 -23 -68 -21 -4 4 128 57
165 66 2 1 0 -3 -3 -9z m-205 -80 c-19 -11 -39 -19 -45 -19 -5 0 6 8 25 19 19
11 40 19 45 19 6 0 -6 -8 -25 -19z m-65 -29 c-6 -5 -21 -12 -35 -15 l-25 -7
25 15 c28 17 50 21 35 7z m-65 -25 c0 -3 -31 -21 -70 -42 -38 -20 -70 -40 -70
-44 0 -4 -16 -10 -35 -12 -19 -2 -35 -3 -35 -1 0 4 193 102 203 102 4 1 7 -1
7 -3z m-260 -131 c0 -2 -10 -9 -22 -15 -22 -11 -22 -10 -4 4 21 17 26 19 26
11z m-90 -55 c-31 -23 -109 -67 -95 -53 12 12 108 73 115 73 3 0 -6 -9 -20
-20z m-172 -113 c-7 -7 -22 -16 -33 -20 -17 -6 -17 -4 4 13 26 22 50 28 29 7z
m-83 -52 c-33 -28 -65 -48 -65 -41 0 5 82 66 89 66 4 0 -7 -11 -24 -25z m-75
-49 c0 -2 -8 -10 -17 -17 -16 -13 -17 -12 -4 4 13 16 21 21 21 13z m-45 -36
c-3 -5 -20 -19 -38 -30 -32 -22 -32 -22 3 9 37 32 45 37 35 21z m-141 -112
c-16 -13 -67 -56 -113 -98 -47 -41 -81 -69 -77 -62 11 19 210 191 215 186 2
-2 -9 -14 -25 -26z m-204 -171 c0 -1 -46 -47 -102 -102 l-103 -100 100 103
c93 95 105 107 105 99z m1997 -233 c-3 -3 -12 -4 -19 -1 -8 3 -5 6 6 6 11 1
17 -2 13 -5z m-2255 -37 c-24 -26 -29 -42 -9 -31 6 4 9 4 5 0 -3 -4 -9 -6 -11
-4 -3 2 -18 -8 -33 -22 -17 -15 -11 -4 15 28 24 28 45 52 49 52 3 0 -4 -10
-16 -23z m2018 -41 c0 -2 -9 -6 -20 -9 -11 -3 -18 -1 -14 4 5 9 34 13 34 5z
m-200 -86 c-19 -11 -39 -19 -45 -19 -5 0 6 8 25 19 19 11 40 19 45 19 6 0 -6
-8 -25 -19z m-1980 -70 c-11 -16 -26 -33 -33 -37 -12 -7 0 11 32 50 23 28 24
20 1 -13z m1850 6 c0 -2 -7 -7 -16 -10 -8 -3 -12 -2 -9 4 6 10 25 14 25 6z
m-110 -61 c0 -2 -10 -9 -22 -15 -22 -11 -22 -10 -4 4 21 17 26 19 26 11z m-99
-64 c-14 -10 -38 -26 -55 -36 l-31 -17 24 20 c18 15 21 21 10 26 -8 3 -5 4 7
1 12 -3 27 1 34 10 7 8 18 15 24 15 6 0 0 -9 -13 -19z m-1741 -15 c0 -2 -8
-10 -17 -17 -16 -13 -17 -12 -4 4 13 16 21 21 21 13z m1595 -75 c3 -5 1 -12
-4 -15 -5 -3 -11 1 -15 9 -6 16 9 21 19 6z m-25 -24 c0 -2 -10 -12 -22 -23
l-23 -19 19 23 c18 21 26 27 26 19z m-190 -137 c0 -5 -5 -10 -11 -10 -5 0 -7
5 -4 10 3 6 8 10 11 10 2 0 4 -4 4 -10z m-70 -95 c-41 -41 -76 -75 -79 -75 -2
0 3 8 12 18 10 10 17 26 17 35 0 19 17 32 22 17 2 -6 23 10 48 35 24 25 46 45
49 45 3 0 -28 -34 -69 -75z m-90 -88 c0 -2 -15 -16 -32 -33 l-33 -29 29 33
c28 30 36 37 36 29z m3466 -3168 c175 -66 253 -290 165 -475 -30 -63 -76 -110
-144 -146 l-42 -23 -718 -3 -718 -3 -60 27 c-68 31 -130 93 -162 162 -18 38
-22 66 -22 147 0 126 23 183 100 253 92 84 56 81 847 81 688 1 698 1 754 -20z"/>
</g>
</svg>
